<?xml version="1.0" encoding="utf-8"?>
<!-- Generator: Adobe Illustrator 16.0.0, SVG Export Plug-In . SVG Version: 6.00 Build 0)  -->
<!DOCTYPE svg PUBLIC "-//W3C//DTD SVG 1.1//EN" "http://www.w3.org/Graphics/SVG/1.1/DTD/svg11.dtd">
<svg version="1.1" id="Layer_1" xmlns="http://www.w3.org/2000/svg" xmlns:xlink="http://www.w3.org/1999/xlink" x="0px" y="0px"
	 width="17.008px" height="17.008px" viewBox="0 0 17.008 17.008" enable-background="new 0 0 17.008 17.008" xml:space="preserve">
<g>
	<g>
		<g>
			<path fill="#CCCCCC" d="M11.185,14.643H2.436V2.365h8.749v3.044l0.933-0.934V1.898c0-0.257-0.209-0.466-0.467-0.466H1.97
				c-0.257,0-0.466,0.209-0.466,0.466v13.211c0,0.257,0.209,0.466,0.466,0.466h9.681c0.258,0,0.467-0.209,0.467-0.466V9.978
				l-0.933,0.933V14.643z M11.185,14.643"/>
			<path fill="#CCCCCC" d="M9.81,3.484H3.812c-0.197,0-0.357,0.159-0.357,0.355s0.16,0.356,0.357,0.356H9.81
				c0.198,0,0.356-0.16,0.356-0.356S10.008,3.484,9.81,3.484L9.81,3.484z M9.81,3.484"/>
			<path fill="#CCCCCC" d="M10.167,5.74c0-0.196-0.159-0.355-0.356-0.355H3.812c-0.197,0-0.357,0.159-0.357,0.355
				c0,0.197,0.16,0.357,0.357,0.357H9.81C10.008,6.098,10.167,5.938,10.167,5.74L10.167,5.74z M10.167,5.74"/>
			<path fill="#CCCCCC" d="M9.309,7.285H3.812c-0.197,0-0.357,0.159-0.357,0.355c0,0.197,0.16,0.356,0.357,0.356h4.785L9.309,7.285z
				 M9.309,7.285"/>
			<path fill="#CCCCCC" d="M7.315,9.647c0.049-0.161,0.117-0.316,0.202-0.462H3.812c-0.197,0-0.357,0.159-0.357,0.355
				c0,0.197,0.16,0.357,0.357,0.357h3.429L7.315,9.647z M7.315,9.647"/>
			<path fill="#CCCCCC" d="M3.812,11.086c-0.197,0-0.357,0.16-0.357,0.356c0,0.197,0.16,0.356,0.357,0.356h3.13
				c-0.092-0.224-0.116-0.472-0.051-0.713H3.812z M3.812,11.086"/>
			<path fill="#CCCCCC" d="M15.213,4.131c-0.187-0.186-0.44-0.291-0.704-0.291c-0.263,0-0.516,0.105-0.703,0.291L8.533,9.404
				c-0.144,0.144-0.249,0.32-0.307,0.515l-0.42,1.409c-0.019,0.06-0.002,0.124,0.042,0.168c0.032,0.032,0.075,0.05,0.12,0.05
				c0.016,0,0.032-0.002,0.048-0.007l1.409-0.421c0.195-0.059,0.371-0.164,0.516-0.307l5.273-5.272
				c0.186-0.187,0.291-0.44,0.291-0.704S15.398,4.318,15.213,4.131L15.213,4.131z M15.213,4.131"/>
		</g>
	</g>
</g>
</svg>
