<?xml version="1.0" encoding="utf-8"?>
<!-- Generator: Adobe Illustrator 16.0.0, SVG Export Plug-In . SVG Version: 6.00 Build 0)  -->
<!DOCTYPE svg PUBLIC "-//W3C//DTD SVG 1.1//EN" "http://www.w3.org/Graphics/SVG/1.1/DTD/svg11.dtd">
<svg version="1.1" id="Layer_1" xmlns="http://www.w3.org/2000/svg" xmlns:xlink="http://www.w3.org/1999/xlink" x="0px" y="0px"
	 width="17.008px" height="17.008px" viewBox="0 0 17.008 17.008" enable-background="new 0 0 17.008 17.008" xml:space="preserve">
<g>
	<path fill="#CCCCCC" d="M1.53,4.8v10.704h13.948V4.8H1.53z M14.98,14.955H2.03V5.347H14.98V14.955z M14.98,14.955"/>
	<path fill="#CCCCCC" d="M2.278,4.249H14.73c0.138,0,0.25-0.123,0.25-0.275c0-0.149-0.112-0.274-0.25-0.274H2.278
		c-0.138,0-0.248,0.125-0.248,0.274C2.03,4.126,2.14,4.249,2.278,4.249L2.278,4.249z M2.278,4.249"/>
	<path fill="#CCCCCC" d="M3.025,3.151h10.959c0.137,0,0.249-0.125,0.249-0.274c0-0.152-0.112-0.275-0.249-0.275H3.025
		c-0.137,0-0.25,0.123-0.25,0.275C2.775,3.026,2.888,3.151,3.025,3.151L3.025,3.151z M3.025,3.151"/>
	<path fill="#CCCCCC" d="M3.772,2.053h9.465c0.139,0,0.249-0.123,0.249-0.273c0-0.152-0.11-0.275-0.249-0.275H3.772
		c-0.138,0-0.249,0.123-0.249,0.275C3.523,1.93,3.634,2.053,3.772,2.053L3.772,2.053z M3.772,2.053"/>
</g>
</svg>
