<?xml version="1.0" encoding="UTF-8" standalone="no"?>
<svg width="18px" height="17px" viewBox="0 0 18 17" version="1.1" xmlns="http://www.w3.org/2000/svg" xmlns:xlink="http://www.w3.org/1999/xlink">
    <!-- Generator: Sketch 39.1 (31720) - http://www.bohemiancoding.com/sketch -->
    <title>Group</title>
    <desc>Created with Sketch.</desc>
    <defs>
        <polygon id="path-1" points="8.9641831 0.622470209 0.638571763 0.622470209 0.638571763 16.278033 17.2897944 16.278033 17.2897944 0.622470209 8.9641831 0.622470209"></polygon>
    </defs>
    <g id="Page-1" stroke="none" stroke-width="1" fill="none" fill-rule="evenodd">
        <g id="Artboard">
            <g id="Group">
                <mask id="mask-2" fill="white">
                    <use xlink:href="#path-1"></use>
                </mask>
                <g id="Clip-2"></g>
                <path d="M14.0654373,8.77380596 L14.0654373,15.3337802 L10.6623576,15.3337802 L10.6623576,12.655062 C10.6623576,12.404223 10.4524719,12.1843317 10.1997714,12.1843317 L7.73931572,12.1843317 C7.46846548,12.1843317 7.250203,12.404223 7.250203,12.655062 L7.250203,15.3337802 L3.85526742,15.3337802 L3.85526742,8.99206844 C3.85526742,8.7384372 3.6463125,8.52855153 3.37546226,8.52855153 C3.12276178,8.52855153 2.91357418,8.7384372 2.91357418,8.99206844 L2.91357418,15.8145161 C2.91357418,16.0672166 3.12276178,16.278033 3.37546226,16.278033 L7.73931572,16.278033 C7.99201621,16.278033 8.20097112,16.0672166 8.20097112,15.8145161 L8.20097112,13.1357979 L9.7197336,13.1357979 L9.7197336,15.8145161 C9.7197336,16.0672166 9.9289212,16.278033 10.1997714,16.278033 L14.5445444,16.278033 C14.7981756,16.278033 15.0071305,16.0672166 15.0071305,15.8145161 L15.0071305,8.77380596 C15.0071305,8.50202496 14.7981756,8.2940008 14.5445444,8.2940008 C14.2746249,8.2940008 14.0654373,8.50202496 14.0654373,8.77380596 Z" id="Fill-1" stroke="#FFFFFF" stroke-width="0.2" fill="#CCCCCC" mask="url(#mask-2)"></path>
                <path d="M17.1541539,8.66746699 L13.3673697,4.86439452 L13.3673697,2.27223671 C13.3673697,2.00231723 13.1484091,1.79312963 12.8784896,1.79312963 C12.6248584,1.79312963 12.4156708,2.00231723 12.4156708,2.27223671 L12.4156708,3.9138591 L9.29181814,0.771623993 C9.19618287,0.674359903 9.08263054,0.622470209 8.9690782,0.622470209 C8.83807418,0.622470209 8.72452184,0.675988727 8.62911927,0.771623993 L0.78400252,8.61580998 C0.595756949,8.80382287 0.584122488,9.10562077 0.78400252,9.27827617 C0.958519429,9.47931965 1.25938658,9.46652174 1.44763215,9.27827617 L8.9690782,1.77497987 L16.4733053,9.34924638 C16.5514888,9.42742995 16.6650412,9.47187359 16.8132642,9.47187359 C16.9440355,9.47187359 17.0575879,9.42742995 17.1541539,9.34924638 C17.3286708,9.17472947 17.341236,8.85757407 17.1541539,8.66746699 L17.1541539,8.66746699 Z" id="Fill-3" stroke="#FFFFFF" stroke-width="0.2" fill="#CCCCCC" mask="url(#mask-2)"></path>
            </g>
        </g>
    </g>
</svg>