<?xml version="1.0" encoding="utf-8"?>
<!-- Generator: Adobe Illustrator 16.0.0, SVG Export Plug-In . SVG Version: 6.00 Build 0)  -->
<!DOCTYPE svg PUBLIC "-//W3C//DTD SVG 1.1//EN" "http://www.w3.org/Graphics/SVG/1.1/DTD/svg11.dtd">
<svg version="1.1" id="Layer_1" xmlns="http://www.w3.org/2000/svg" xmlns:xlink="http://www.w3.org/1999/xlink" x="0px" y="0px"
	 width="213px" height="214px" viewBox="0 0 213 214" enable-background="new 0 0 213 214" xml:space="preserve">
<g>
	<g>
		<g>
			<path fill="none" stroke="#B3B3B3" stroke-miterlimit="10" stroke-dasharray="4.985,4.985" d="M211.5,199.535
				c0,6.914-5.716,12.965-12.633,12.965H14.152c-6.918,0-12.652-6.051-12.652-12.965V14.815C1.5,7.902,7.234,2.5,14.152,2.5h184.715
				c6.917,0,12.633,5.402,12.633,12.315V199.535z"/>
		</g>
		<g>
			<path opacity="0.15" fill="#1377E5" d="M62.917,140.065v-33.19H79.83v33.19c0,4.665-3.795,8.459-8.46,8.459
				C66.711,148.524,62.917,144.729,62.917,140.065L62.917,140.065z"/>
			<path fill="#FFFFFF" stroke="#F4F4F4" stroke-width="2" stroke-miterlimit="10" d="M151.477,140.065
				c0,4.665-3.796,8.459-8.46,8.459H80.729c2.029-2.24,3.263-5.208,3.263-8.459V63.42h67.485V140.065z"/>
			<g>
				<g>
					<g>
						<path fill="#B3B3B3" stroke="#FFFFFF" stroke-width="2" stroke-miterlimit="10" d="M153.556,59.257H81.912
							c-1.153,0-2.082,0.932-2.082,2.081v41.374H60.834c-1.15,0-2.08,0.931-2.08,2.08v35.273c0,6.96,5.661,12.623,12.616,12.623
							h71.648c6.958,0,12.62-5.663,12.62-12.623V61.338C155.639,60.189,154.704,59.257,153.556,59.257L153.556,59.257z
							 M62.917,140.065v-33.19H79.83v33.19c0,4.665-3.795,8.459-8.46,8.459C66.711,148.524,62.917,144.729,62.917,140.065
							L62.917,140.065z M151.477,140.065c0,4.665-3.796,8.459-8.46,8.459H80.729c2.029-2.24,3.263-5.208,3.263-8.459V63.42h67.485
							V140.065z M151.477,140.065"/>
						<path fill="#B3B3B3" stroke="#FFFFFF" stroke-width="2" stroke-miterlimit="10" d="M94.3,88.808h26.672
							c1.151,0,2.081-0.933,2.081-2.081s-0.93-2.082-2.081-2.082H94.3c-1.148,0-2.081,0.934-2.081,2.082S93.151,88.808,94.3,88.808
							L94.3,88.808z M94.3,88.808"/>
						<path fill="#B3B3B3" stroke="#FFFFFF" stroke-width="2" stroke-miterlimit="10" d="M94.3,111.67h47.184
							c1.149,0,2.08-0.93,2.08-2.083c0-1.147-0.931-2.08-2.08-2.08H94.3c-1.148,0-2.081,0.932-2.081,2.08
							C92.219,110.74,93.151,111.67,94.3,111.67L94.3,111.67z M94.3,111.67"/>
						<path fill="#B3B3B3" stroke="#FFFFFF" stroke-width="2" stroke-miterlimit="10" d="M94.3,134.535h47.184
							c1.149,0,2.08-0.935,2.08-2.084c0-1.148-0.931-2.082-2.08-2.082H94.3c-1.148,0-2.081,0.934-2.081,2.082
							C92.219,133.601,93.151,134.535,94.3,134.535L94.3,134.535z M94.3,134.535"/>
					</g>
				</g>
			</g>
		</g>
		<g>
			<path fill="#B3B3B3" d="M119.362,79.106c-1.706,0-3.095-1.387-3.095-3.093V58.3l-3.479,3.478
				c-0.588,0.585-1.363,0.906-2.186,0.906c-0.829,0-1.606-0.324-2.19-0.913c-0.576-0.572-0.901-1.35-0.902-2.178
				c-0.001-0.829,0.323-1.609,0.911-2.195l8.755-8.756c0.308-0.312,0.676-0.551,1.084-0.7c0.3-0.125,0.697-0.205,1.104-0.205
				c0.405,0,0.803,0.079,1.181,0.235c0.352,0.137,0.715,0.375,1.013,0.673l8.75,8.756c0.585,0.579,0.911,1.36,0.91,2.192
				c-0.001,0.831-0.328,1.61-0.922,2.195c-0.566,0.572-1.344,0.896-2.172,0.896c-0.817,0-1.616-0.331-2.192-0.907l-3.472-3.474
				v17.709C122.46,77.719,121.07,79.106,119.362,79.106z"/>
			<path fill="#FFFFFF" d="M119.363,49.737c0.142,0,0.283,0.028,0.418,0.083c0.132,0.051,0.258,0.134,0.358,0.235l8.753,8.759
				c0.434,0.429,0.434,1.122,0,1.549c-0.21,0.212-0.485,0.321-0.769,0.321c-0.28,0-0.566-0.109-0.778-0.321l-6.886-6.89v22.54
				c0,0.603-0.49,1.093-1.098,1.093c-0.605,0-1.095-0.49-1.095-1.093v-22.54l-6.893,6.89c-0.213,0.212-0.491,0.321-0.771,0.321
				c-0.281,0-0.56-0.109-0.77-0.321c-0.431-0.427-0.431-1.12,0-1.549l8.757-8.759c0.1-0.101,0.215-0.184,0.355-0.235
				C119.081,49.765,119.223,49.737,119.363,49.737 M119.363,45.737c-0.643,0-1.271,0.12-1.871,0.357
				c-0.656,0.252-1.244,0.641-1.751,1.154l-8.736,8.738c-0.963,0.96-1.495,2.244-1.494,3.609c0.002,1.365,0.536,2.646,1.506,3.608
				c0.938,0.946,2.22,1.481,3.587,1.481c1.354,0,2.631-0.528,3.594-1.486l0.07-0.071v12.886c0,2.808,2.285,5.093,5.095,5.093
				c2.811,0,5.098-2.285,5.098-5.093V63.134l0.057,0.057c0.949,0.949,2.264,1.493,3.607,1.493c1.366,0,2.648-0.535,3.61-1.505
				c0.942-0.929,1.481-2.214,1.483-3.583c0.002-1.371-0.535-2.657-1.511-3.624l-8.738-8.744c-0.476-0.478-1.063-0.866-1.695-1.119
				C120.663,45.862,120.021,45.737,119.363,45.737L119.363,45.737z"/>
		</g>
	</g>
</g>
</svg>
